<svg id="Sales" height="512" viewBox="0 0 64 64" width="512" xmlns="http://www.w3.org/2000/svg"><path d="m59.67 11.26-10-9a.971.971 0 0 0 -.67-.26h-31a3.009 3.009 0 0 0 -3 3v25h-1.96l-.04-.15a3.007 3.007 0 0 0 -3-2.85h-6a2.006 2.006 0 0 0 -2 2v2a2.006 2.006 0 0 0 2 2h3.25l3.75 13.15a3.007 3.007 0 0 0 3 2.85h.42a4.934 4.934 0 0 0 .58 4.97v5.03a3.009 3.009 0 0 0 3 3h39a3.009 3.009 0 0 0 3-3v-47a1 1 0 0 0 -.33-.74zm-9.67-6.01 6.39 5.75h-5.39a1 1 0 0 1 -1-1zm-8.17 26.75-1.69 11h-23.39l-3.14-11zm-20.83-2v-5h9v5zm11 0v-2h6v2zm-18 17a1 1 0 0 1 -1-1 .8.8 0 0 0 -.04-.27l-4-14a1 1 0 0 0 -.96-.73h-4v-2h6a1 1 0 0 1 1 1 .8.8 0 0 0 .04.27l4 14a1 1 0 0 0 .96.73h25a1 1 0 0 1 0 2h-3.03a4.91 4.91 0 0 0 -5.94 0h-10.06a4.91 4.91 0 0 0 -5.94 0zm24 4a3 3 0 1 1 -3-3 3.009 3.009 0 0 1 3 3zm-22 0a3 3 0 1 1 3 3 3.009 3.009 0 0 1 -3-3zm42 8a1 1 0 0 1 -1 1h-39a1 1 0 0 1 -1-1v-3.42a4.941 4.941 0 0 0 2 .42 5 5 0 0 0 5-5 4.941 4.941 0 0 0 -.42-2h6.84a4.941 4.941 0 0 0 -.42 2 5 5 0 0 0 10 0 4.941 4.941 0 0 0 -.42-2h1.42a3 3 0 0 0 1.13-5.78l1.68-10.91a1.98 1.98 0 0 0 -.45-1.6 2 2 0 0 0 -1.53-.71h-1.83v-3a1 1 0 0 0 -1-1h-7v-2a1 1 0 0 0 -1-1h-11a1 1 0 0 0 -1 1v6h-2v-25a1 1 0 0 1 1-1h30v6a3.009 3.009 0 0 0 3 3h7z"/><path d="m21 40a1 1 0 0 0 1-1v-3a1 1 0 0 0 -2 0v3a1 1 0 0 0 1 1z"/><path d="m26 41a1 1 0 0 0 1-1v-5a1 1 0 0 0 -2 0v5a1 1 0 0 0 1 1z"/><path d="m31 41a1 1 0 0 0 1-1v-5a1 1 0 0 0 -2 0v5a1 1 0 0 0 1 1z"/><path d="m36 40a1 1 0 0 0 1-1v-3a1 1 0 0 0 -2 0v3a1 1 0 0 0 1 1z"/><rect height="2" rx="1" width="2" x="18" y="50"/><rect height="2" rx="1" width="2" x="34" y="50"/><path d="m21 12h23v2h-23z"/><path d="m21 17h23v2h-23z"/><path d="m21 7h23v2h-23z"/></svg>